<svg xmlns="http://www.w3.org/2000/svg" xmlns:xlink="http://www.w3.org/1999/xlink" width="500" zoomAndPan="magnify" viewBox="0 0 375 374.999991" height="500" preserveAspectRatio="xMidYMid meet" version="1.0"><defs><clipPath id="06b73eaa1b"><path d="M 22.5 0 L 352.5 0 C 358.46875 0 364.191406 2.371094 368.410156 6.589844 C 372.628906 10.808594 375 16.53125 375 22.5 L 375 352.5 C 375 358.46875 372.628906 364.191406 368.410156 368.410156 C 364.191406 372.628906 358.46875 375 352.5 375 L 22.5 375 C 10.074219 375 0 364.925781 0 352.5 L 0 22.5 C 0 10.074219 10.074219 0 22.5 0 Z M 22.5 0 " clip-rule="nonzero"/></clipPath><clipPath id="391ff69e3d"><path d="M 84.632812 49.15625 L 290.367188 49.15625 L 290.367188 323 L 84.632812 323 Z M 84.632812 49.15625 " clip-rule="nonzero"/></clipPath><clipPath id="2a03798202"><path d="M 187.5 49.15625 C 244.3125 49.15625 290.367188 95.210938 290.367188 152.023438 L 290.367188 219.941406 C 290.367188 276.753906 244.3125 322.8125 187.5 322.8125 C 130.6875 322.8125 84.632812 276.753906 84.632812 219.941406 L 84.632812 152.023438 C 84.632812 95.210938 130.6875 49.15625 187.5 49.15625 Z M 187.5 49.15625 " clip-rule="nonzero"/></clipPath><clipPath id="609e188834"><path d="M 20 47 L 288 47 L 288 240 L 20 240 Z M 20 47 " clip-rule="nonzero"/></clipPath><clipPath id="8f33fcb20b"><path d="M -7.097656 49.921875 L 276.390625 29.140625 L 291.03125 228.855469 L 7.542969 249.636719 Z M -7.097656 49.921875 " clip-rule="nonzero"/></clipPath><clipPath id="7faa68ce58"><path d="M -7.097656 49.921875 L 276.390625 29.140625 L 291.03125 228.855469 L 7.542969 249.636719 Z M -7.097656 49.921875 " clip-rule="nonzero"/></clipPath><clipPath id="f7b886addb"><path d="M 87 47 L 355 47 L 355 239 L 87 239 Z M 87 47 " clip-rule="nonzero"/></clipPath><clipPath id="fb6f7b6233"><path d="M 97.542969 30.300781 L 381.199219 48.652344 L 368.273438 248.484375 L 84.617188 230.132812 Z M 97.542969 30.300781 " clip-rule="nonzero"/></clipPath><clipPath id="518b7901df"><path d="M 381.128906 48.648438 L 97.472656 30.296875 L 84.546875 230.128906 L 368.203125 248.480469 Z M 381.128906 48.648438 " clip-rule="nonzero"/></clipPath><clipPath id="4ad4f7afec"><path d="M 58.503906 48.203125 L 316.503906 48.203125 L 316.503906 124.703125 L 58.503906 124.703125 Z M 58.503906 48.203125 " clip-rule="nonzero"/></clipPath><clipPath id="f95c8defe5"><path d="M 91.175781 71.261719 L 180.148438 71.261719 L 180.148438 160.230469 L 91.175781 160.230469 Z M 91.175781 71.261719 " clip-rule="nonzero"/></clipPath><clipPath id="f6355b3769"><path d="M 135.660156 71.261719 C 111.09375 71.261719 91.175781 91.175781 91.175781 115.746094 C 91.175781 140.316406 111.09375 160.230469 135.660156 160.230469 C 160.230469 160.230469 180.148438 140.316406 180.148438 115.746094 C 180.148438 91.175781 160.230469 71.261719 135.660156 71.261719 Z M 135.660156 71.261719 " clip-rule="nonzero"/></clipPath><clipPath id="b8630e010a"><path d="M 194.851562 71.261719 L 283.824219 71.261719 L 283.824219 160.230469 L 194.851562 160.230469 Z M 194.851562 71.261719 " clip-rule="nonzero"/></clipPath><clipPath id="51d399f69f"><path d="M 239.339844 71.261719 C 214.769531 71.261719 194.851562 91.175781 194.851562 115.746094 C 194.851562 140.316406 214.769531 160.230469 239.339844 160.230469 C 263.90625 160.230469 283.824219 140.316406 283.824219 115.746094 C 283.824219 91.175781 263.90625 71.261719 239.339844 71.261719 Z M 239.339844 71.261719 " clip-rule="nonzero"/></clipPath><clipPath id="78afeec3c9"><path d="M 112.144531 92.230469 L 159.179688 92.230469 L 159.179688 139.261719 L 112.144531 139.261719 Z M 112.144531 92.230469 " clip-rule="nonzero"/></clipPath><clipPath id="b37b2a2eb5"><path d="M 135.660156 92.230469 C 122.675781 92.230469 112.144531 102.757812 112.144531 115.746094 C 112.144531 128.734375 122.675781 139.261719 135.660156 139.261719 C 148.648438 139.261719 159.179688 128.734375 159.179688 115.746094 C 159.179688 102.757812 148.648438 92.230469 135.660156 92.230469 Z M 135.660156 92.230469 " clip-rule="nonzero"/></clipPath><clipPath id="1126c47182"><path d="M 215.820312 92.230469 L 262.855469 92.230469 L 262.855469 139.261719 L 215.820312 139.261719 Z M 215.820312 92.230469 " clip-rule="nonzero"/></clipPath><clipPath id="6291ba6b44"><path d="M 239.339844 92.230469 C 226.351562 92.230469 215.820312 102.757812 215.820312 115.746094 C 215.820312 128.734375 226.351562 139.261719 239.339844 139.261719 C 252.324219 139.261719 262.855469 128.734375 262.855469 115.746094 C 262.855469 102.757812 252.324219 92.230469 239.339844 92.230469 Z M 239.339844 92.230469 " clip-rule="nonzero"/></clipPath></defs><g clip-path="url(#06b73eaa1b)"><rect x="-37.5" width="450" fill="#16a34a" y="-37.499999" height="449.999989" fill-opacity="1"/></g><g clip-path="url(#391ff69e3d)"><g clip-path="url(#2a03798202)"><path fill="#000000" d="M 84.632812 49.15625 L 290.367188 49.15625 L 290.367188 323.203125 L 84.632812 323.203125 Z M 84.632812 49.15625 " fill-opacity="1" fill-rule="nonzero"/></g></g><g clip-path="url(#609e188834)"><g clip-path="url(#8f33fcb20b)"><g clip-path="url(#7faa68ce58)"><path fill="#000000" d="M 136.8125 49.382812 C 85 60.625 54.335938 111.027344 31.847656 159.8125 C 28.925781 166.121094 6.292969 232.605469 34.644531 238.398438 C 53.203125 242.199219 68.566406 231.257812 77.90625 216.691406 C 81.703125 210.746094 123.753906 139.027344 149.425781 137.148438 C 163.148438 136.140625 175.535156 142.34375 187.199219 154.859375 C 202.351562 171.097656 215.554688 189.59375 229.59375 206.757812 C 229.683594 206.835938 229.859375 206.910156 229.949219 206.984375 C 237.160156 217.628906 248.15625 225.625 261.015625 227.898438 C 272.246094 229.867188 290.433594 221.679688 287.027344 190.191406 C 279.527344 122.53125 205.453125 34.449219 136.8125 49.382812 Z M 136.8125 49.382812 " fill-opacity="1" fill-rule="nonzero"/></g></g></g><g clip-path="url(#f7b886addb)"><g clip-path="url(#fb6f7b6233)"><g clip-path="url(#518b7901df)"><path fill="#000000" d="M 237.21875 49.339844 C 289.125 60.140625 320.222656 110.277344 343.128906 158.871094 C 346.105469 165.152344 369.304688 231.441406 341.003906 237.476562 C 322.480469 241.433594 307.023438 230.625 297.558594 216.140625 C 293.710938 210.226562 251.046875 138.875 225.359375 137.210938 C 211.628906 136.324219 199.296875 142.628906 187.738281 155.246094 C 172.726562 171.613281 159.679688 190.222656 145.792969 207.507812 C 145.703125 207.585938 145.527344 207.660156 145.4375 207.738281 C 138.316406 218.441406 127.390625 226.53125 114.550781 228.914062 C 103.335938 230.980469 85.082031 222.949219 88.21875 191.433594 C 95.136719 123.710938 168.453125 34.996094 237.21875 49.339844 Z M 237.21875 49.339844 " fill-opacity="1" fill-rule="nonzero"/></g></g></g><g clip-path="url(#4ad4f7afec)"><path fill="#000000" d="M 187.496094 48.4375 C 131.976562 48.4375 83.644531 79.148438 58.503906 124.5 L 316.492188 124.5 C 291.351562 79.148438 243.023438 48.4375 187.496094 48.4375 Z M 187.496094 48.4375 " fill-opacity="1" fill-rule="nonzero"/></g><g clip-path="url(#f95c8defe5)"><g clip-path="url(#f6355b3769)"><path fill="#ffffff" d="M 91.175781 71.261719 L 180.148438 71.261719 L 180.148438 160.230469 L 91.175781 160.230469 Z M 91.175781 71.261719 " fill-opacity="1" fill-rule="nonzero"/></g></g><g clip-path="url(#b8630e010a)"><g clip-path="url(#51d399f69f)"><path fill="#ffffff" d="M 194.851562 71.261719 L 283.824219 71.261719 L 283.824219 160.230469 L 194.851562 160.230469 Z M 194.851562 71.261719 " fill-opacity="1" fill-rule="nonzero"/></g></g><g clip-path="url(#78afeec3c9)"><g clip-path="url(#b37b2a2eb5)"><path fill="#000000" d="M 112.144531 92.230469 L 159.179688 92.230469 L 159.179688 139.261719 L 112.144531 139.261719 Z M 112.144531 92.230469 " fill-opacity="1" fill-rule="nonzero"/></g></g><g clip-path="url(#1126c47182)"><g clip-path="url(#6291ba6b44)"><path fill="#000000" d="M 215.820312 92.230469 L 262.855469 92.230469 L 262.855469 139.261719 L 215.820312 139.261719 Z M 215.820312 92.230469 " fill-opacity="1" fill-rule="nonzero"/></g></g></svg>